<?xml version="1.0" encoding="UTF-8" standalone="no"?><!DOCTYPE svg PUBLIC "-//W3C//DTD SVG 1.1//EN" "http://www.w3.org/Graphics/SVG/1.1/DTD/svg11.dtd"><svg width="100%" height="100%" viewBox="0 0 327 61" version="1.1" xmlns="http://www.w3.org/2000/svg" xmlns:xlink="http://www.w3.org/1999/xlink" xml:space="preserve" xmlns:serif="http://www.serif.com/" style="fill-rule:evenodd;clip-rule:evenodd;stroke-linejoin:round;stroke-miterlimit:1.41421;"><g><path d="M19.18,60c-1.78,-0.91 -3.47,-2.19 -4.79,-3.83c-1.37,-1.64 -2.51,-3.51 -3.24,-5.65c-0.78,-2.14 -1.23,-4.51 -1.23,-6.93c0,-14.59 12.18,-22.53 10.85,-37.3c0,-0.87 -0.18,-1.69 -0.41,-2.42c-0.27,-0.78 -0.64,-1.46 -1.14,-1.96c1.78,0.91 3.47,2.19 4.79,3.83c1.37,1.64 2.51,3.51 3.24,5.65c0.73,2.14 1.23,4.51 1.23,6.93c0,12.63 -11.54,21.89 -11.54,35.43c0,1.23 0.23,2.42 0.59,3.47c0.47,0.96 0.97,1.96 1.65,2.78" style="fill:#006e9a;fill-rule:nonzero;"/><path d="M63.06,45.14l0,-13.52l-12.57,0l0,13.52l-5.38,0l0,-30.6l5.38,0l0,12.78l12.57,0l0,-12.78l5.31,0l0,30.6l-5.31,0Z" style="fill:#00aeef;fill-rule:nonzero;"/><path d="M76.51,35.86c0.27,4.51 2.62,5.58 6.25,5.58c3.16,0 5.98,-0.34 8.34,-0.61l0.4,3.77c-2.56,0.4 -5.65,0.87 -10.09,0.87c-7.87,0 -9.88,-5.11 -9.88,-12.04c0,-8.47 2.62,-12.04 10.42,-12.04c8.47,0 10.22,4.44 10.22,11.43c0,0.61 0,1.14 -0.07,1.68c-2.62,0.54 -8.27,1.01 -11.57,1.21l-4.02,0.15Zm4.57,-3.56c1.68,-0.07 4.44,-0.34 6.05,-0.54c0,-0.34 0.07,-0.74 0.07,-1.14c0,-3.56 -1.28,-5.58 -5.18,-5.58c-4.98,0 -5.65,3.09 -5.65,7.33l4.71,-0.07Z" style="fill:#00aeef;fill-rule:nonzero;"/><path d="M94.8,38.21c0,-4.1 1.82,-6.66 6.32,-7.33c2.56,-0.4 5.38,-0.54 8.27,-0.61c0,-3.23 -1.48,-4.84 -4.98,-4.84c-2.82,0 -5.72,0.27 -8.14,0.61l-0.4,-3.7c2.56,-0.4 5.58,-0.87 9.08,-0.87c5.11,0 9.41,1.34 9.41,7.33l0,10.35c0,1.55 -0.07,2.89 -0.2,4.3c-2.62,1.48 -6.05,2.02 -10.49,2.02c-6.45,0.01 -8.87,-2.48 -8.87,-7.26m14.46,-4.7c-2.02,0.07 -4.44,0.07 -6.39,0.61c-2.42,0.61 -3.36,1.28 -3.36,4.03c0,2.89 1.61,3.7 4.64,3.7c1.55,0 3.43,-0.07 4.84,-0.74c0.07,-0.94 0.2,-2.02 0.2,-3.16l0,-4.37l0.07,0l0,-0.07Z" style="fill:#00aeef;fill-rule:nonzero;"/><path d="M118.27,12.66l5.04,0l0,26.22c0,2.15 0.54,3.7 1.68,5.31l-4.37,2.02c-1.55,-1.68 -2.42,-3.83 -2.42,-7.06l0.07,-26.49Z" style="fill:#00aeef;fill-rule:nonzero;"/><path d="M141.06,45.14c-1.14,0.2 -2.49,0.34 -3.5,0.34c-4.77,0 -6.72,-2.02 -6.72,-6.39l0,-13.65l-3.9,0l0,-3.7l3.9,0l0,-5.78l5.04,-0.87l0,6.59l4.84,0l0,3.7l-4.84,0l0,13.25c0,2.22 0.94,2.96 3.16,2.96c0.61,0 1.21,0 1.82,-0.07l0.2,3.62Z" style="fill:#00aeef;fill-rule:nonzero;"/><path d="M164.66,45.14l-5.04,0l0,-14.46c0,-3.77 -0.67,-5.31 -5.58,-5.31c-1.55,0 -3.16,0.34 -4.44,0.94l0,18.83l-5.04,0l0,-32.48l5.04,0l0,9.62c1.68,-0.54 3.7,-0.87 5.78,-0.87c8.27,0 9.14,3.83 9.14,8.74l0,14.99l0.14,0Z" style="fill:#00aeef;fill-rule:nonzero;"/><path d="M189.74,19.05c-1.88,-0.34 -3.9,-0.54 -6.05,-0.54c-8.2,0 -8.27,4.77 -8.27,11.16c0,6.52 0.07,11.16 8.27,11.16c2.02,0 4.1,-0.2 6.05,-0.54l0.54,4.1c-1.95,0.54 -4.71,0.87 -7.67,0.87c-10.09,0 -12.57,-4.77 -12.57,-15.6c0,-10.83 2.49,-15.6 12.57,-15.6c3.09,0 5.72,0.34 7.67,0.87l-0.54,4.12Z" style="fill:#006e9a;fill-rule:nonzero;"/><path d="M193.44,38.21c0,-4.1 1.82,-6.66 6.32,-7.33c2.56,-0.4 5.38,-0.54 8.27,-0.61c0,-3.23 -1.48,-4.84 -4.98,-4.84c-2.82,0 -5.72,0.27 -8.14,0.61l-0.4,-3.7c2.56,-0.4 5.58,-0.87 9.08,-0.87c5.11,0 9.41,1.34 9.41,7.33l0,10.35c0,1.55 -0.07,2.89 -0.2,4.3c-2.62,1.48 -6.05,2.02 -10.49,2.02c-6.38,0.01 -8.87,-2.48 -8.87,-7.26m14.59,-4.7c-2.02,0.07 -4.44,0.07 -6.39,0.61c-2.42,0.61 -3.36,1.28 -3.36,4.03c0,2.89 1.61,3.7 4.64,3.7c1.55,0 3.43,-0.07 4.84,-0.74c0.07,-0.94 0.2,-2.02 0.2,-3.16l0,-4.37l0.07,0l0,-0.07Z" style="fill:#006e9a;fill-rule:nonzero;"/><path d="M229.55,45.14c-1.14,0.2 -2.49,0.34 -3.5,0.34c-4.77,0 -6.72,-2.02 -6.72,-6.39l0,-13.65l-3.9,0l0,-3.7l3.9,0l0,-5.78l5.04,-0.87l0,6.59l4.84,0l0,3.7l-4.98,0l0,13.25c0,2.22 0.94,2.96 3.16,2.96c0.61,0 1.21,0 1.82,-0.07l0.34,3.62Z" style="fill:#006e9a;fill-rule:nonzero;"/><path d="M233.18,38.21c0,-4.1 1.82,-6.66 6.32,-7.33c2.56,-0.4 5.38,-0.54 8.27,-0.61c0,-3.23 -1.48,-4.84 -4.98,-4.84c-2.82,0 -5.72,0.27 -8.14,0.61l-0.4,-3.7c2.56,-0.4 5.58,-0.87 9.08,-0.87c5.11,0 9.41,1.34 9.41,7.33l0,10.35c0,1.55 -0.07,2.89 -0.2,4.3c-2.62,1.48 -6.05,2.02 -10.49,2.02c-6.45,0.01 -8.87,-2.48 -8.87,-7.26m14.59,-4.7c-2.02,0.07 -4.44,0.07 -6.39,0.61c-2.42,0.61 -3.36,1.28 -3.36,4.03c0,2.89 1.61,3.7 4.64,3.7c1.55,0 3.43,-0.07 4.84,-0.74c0.07,-0.94 0.2,-2.02 0.2,-3.16l0,-4.37l0.07,0l0,-0.07Z" style="fill:#006e9a;fill-rule:nonzero;"/><path d="M255.77,12.66l5.04,0l0,26.22c0,2.15 0.54,3.7 1.68,5.31l-4.37,2.02c-1.55,-1.68 -2.42,-3.83 -2.42,-7.06l0,-26.49l0.07,0Z" style="fill:#006e9a;fill-rule:nonzero;"/><path d="M276.01,37.34l4.98,-15.67l5.11,0l-10.89,32.08l-5.05,0l3.57,-10.16l-9.42,-21.92l5.25,0l6.45,15.67Z" style="fill:#006e9a;fill-rule:nonzero;"/><path d="M298.67,38.68c0,-2.62 -2.42,-2.89 -4.64,-3.56c-3.77,-1.14 -7.33,-2.15 -7.33,-7.19c0,-5.11 3.56,-6.59 8.27,-6.59c3.23,0 5.58,0.27 8.27,0.94l-0.54,3.7c-1.82,-0.34 -3.77,-0.61 -5.78,-0.61c-1.88,0 -5.31,0 -5.31,2.42c0,2.49 2.82,2.89 4.77,3.56c4.03,1.34 7.26,2.15 7.26,7.26c0,5.38 -4.03,6.93 -9.14,6.93c-2.49,0 -5.65,-0.34 -8.14,-0.94l0.54,-3.77c1.82,0.34 4.37,0.67 6.25,0.67c1.96,-0.06 5.52,0.01 5.52,-2.82" style="fill:#006e9a;fill-rule:nonzero;"/><path d="M320.79,45.14c-1.14,0.2 -2.49,0.34 -3.5,0.34c-4.77,0 -6.72,-2.02 -6.72,-6.39l0,-13.65l-3.9,0l0,-3.7l3.9,0l0,-5.78l5.04,-0.87l0,6.59l4.84,0l0,3.7l-4.84,0l0,13.25c0,2.22 0.94,2.96 3.16,2.96c0.61,0 1.21,0 1.82,-0.07l0.2,3.62Z" style="fill:#006e9a;fill-rule:nonzero;"/><path d="M30.13,59.18c-1.23,-0.59 -2.33,-1.5 -3.24,-2.55c-0.91,-1.09 -1.69,-2.37 -2.19,-3.83c-0.5,-1.46 -0.82,-3.01 -0.82,-4.65c0,-9.8 8.98,-15.37 7.57,-28c1.73,1.55 3.19,4.33 4.01,6.38c0.5,1.46 0.82,3.01 0.82,4.65c0,8.44 -7.71,14.64 -7.71,23.76c0,0.82 0.14,1.64 0.41,2.33c0.28,0.77 0.69,1.41 1.15,1.91" style="fill:#00aeef;fill-rule:nonzero;"/><path d="M7.6,42.53c-1.23,-0.59 -2.33,-1.5 -3.24,-2.55c-0.91,-1.09 -1.69,-2.37 -2.19,-3.83c-0.5,-1.46 -0.82,-3.01 -0.82,-4.65c0,-9.8 8.98,-15.37 7.57,-28c1.73,1.55 3.19,4.33 4.01,6.38c0.5,1.46 0.82,3.01 0.82,4.65c0,8.44 -7.71,14.64 -7.71,23.76c0,0.82 0.14,1.64 0.41,2.33c0.28,0.77 0.69,1.41 1.15,1.91" style="fill:#00aeef;fill-rule:nonzero;"/></g><path d="M325.35,15.07c0,1.29 -1.01,2.31 -2.33,2.31c-1.31,0 -2.35,-1.01 -2.35,-2.31c0,-1.26 1.04,-2.28 2.35,-2.28c1.32,0 2.33,1.02 2.33,2.28Zm-4.09,0c0,1.01 0.75,1.82 1.78,1.82c1,0 1.74,-0.81 1.74,-1.81c0,-1.01 -0.74,-1.83 -1.75,-1.83c-1.02,0 -1.77,0.82 -1.77,1.82Zm1.4,1.19l-0.53,0l0,-2.28c0.21,-0.04 0.5,-0.07 0.87,-0.07c0.43,0 0.63,0.07 0.79,0.17c0.12,0.1 0.22,0.28 0.22,0.5c0,0.25 -0.19,0.44 -0.47,0.53l0,0.03c0.22,0.08 0.35,0.25 0.42,0.56c0.07,0.35 0.11,0.49 0.17,0.57l-0.57,0c-0.07,-0.08 -0.11,-0.29 -0.18,-0.56c-0.04,-0.25 -0.18,-0.36 -0.47,-0.36l-0.25,0l0,0.91Zm0.01,-1.29l0.25,0c0.29,0 0.53,-0.1 0.53,-0.33c0,-0.21 -0.15,-0.35 -0.49,-0.35c-0.14,0 -0.24,0.01 -0.29,0.03l0,0.65Z" style="fill:#006e9a;fill-rule:nonzero;"/></svg>